<?xml version="1.0" standalone="no"?><!DOCTYPE svg PUBLIC "-//W3C//DTD SVG 1.1//EN" "http://www.w3.org/Graphics/SVG/1.1/DTD/svg11.dtd"><svg t="1578217387221" class="icon" viewBox="0 0 1024 1024" version="1.1" xmlns="http://www.w3.org/2000/svg" p-id="4585" xmlns:xlink="http://www.w3.org/1999/xlink" width="200" height="200"><defs><style type="text/css"></style></defs><path d="M571.2 512l300-357.6c5.028571-5.942857 0.8-14.971429-6.971429-14.971429h-91.2c-5.371429 0-10.514286 2.4-14.057142 6.514286L511.542857 440.914286 264.114286 145.942857c-3.428571-4.114286-8.571429-6.514286-14.057143-6.514286H158.857143c-7.771429 0-12 9.028571-6.971429 14.971429L451.885714 512 151.885714 869.6A9.085714 9.085714 0 0 0 158.857143 884.571429h91.2c5.371429 0 10.514286-2.4 14.057143-6.514286l247.428571-294.971429 247.428572 294.971429c3.428571 4.114286 8.571429 6.514286 14.057142 6.514286h91.2c7.771429 0 12-9.028571 6.971429-14.971429L571.2 512z" p-id="4586"></path></svg>