<?xml version="1.0" standalone="no"?><!DOCTYPE svg PUBLIC "-//W3C//DTD SVG 1.1//EN" "http://www.w3.org/Graphics/SVG/1.1/DTD/svg11.dtd"><svg t="1604826399832" class="icon" viewBox="0 0 1024 1024" version="1.1" xmlns="http://www.w3.org/2000/svg" p-id="2855" xmlns:xlink="http://www.w3.org/1999/xlink" width="200" height="200"><defs><style type="text/css"></style></defs><path d="M567.978667 512C567.978667 243.968 350.72 26.666667 82.645333 26.666667H0v213.333333h82.688a272 272 0 1 1 0 544H0v213.333333h82.688c267.989333 0 485.290667-217.301333 485.290667-485.333333zM1024 322.688A296.021333 296.021333 0 0 0 727.978667 26.666667h-341.333334a572.373333 572.373333 0 0 1 199.936 213.333333h141.397334a82.773333 82.773333 0 0 1 0 165.376h-82.688a573.013333 573.013333 0 0 1 0 213.333333h82.688a82.773333 82.773333 0 0 1 0 165.376h-141.397334a572.373333 572.373333 0 0 1-199.936 213.333334h341.333334a296.064 296.064 0 0 0 227.541333-485.333334A296.362667 296.362667 0 0 0 1024 322.688z" p-id="2856"></path></svg>