<?xml version="1.0" standalone="no"?><!DOCTYPE svg PUBLIC "-//W3C//DTD SVG 1.1//EN" "http://www.w3.org/Graphics/SVG/1.1/DTD/svg11.dtd"><svg t="1604828728654" class="icon" viewBox="0 0 1024 1024" version="1.1" xmlns="http://www.w3.org/2000/svg" p-id="2810" xmlns:xlink="http://www.w3.org/1999/xlink" width="200" height="200"><defs><style type="text/css"></style></defs><path d="M511.402667 0.256a511.061333 511.061333 0 0 0-361.514667 149.845333 511.829333 511.829333 0 0 0 0 723.541334 511.018667 511.018667 0 0 0 361.514667 149.845333c282.325333 0 511.189333-229.077333 511.189333-511.616 0-135.68-53.845333-265.813333-149.76-361.770667A511.018667 511.018667 0 0 0 511.445333 0.256zM467.2 222.72c140.501333 0 254.421333 117.205333 254.421333 261.76 0 18.048 0.768 75.52-34.773333 126.592-31.018667 67.968 17.066667 83.797333 26.197333 90.197333 25.088 5.034667 72.618667-6.954667 72.704-55.125333 0.085333-46.08-64.469333-53.162667-52.224-59.733333 88.618667-47.701333 107.008 35.882667 100.181334 56.874666 27.818667 0.426667 99.114667 42.154667 42.794666 105.813334-10.922667 12.373333-6.826667-29.226667-25.045333-42.453334-18.688-14.08-31.616-20.437333-61.44-9.216-53.333333 54.4-138.069333 103.04-230.613333 106.154667-237.226667 3.242667-346.666667-174.549333-346.666667-319.104S326.656 222.72 467.2 222.72z" p-id="2811"></path></svg>