<?xml version="1.0" standalone="no"?><!DOCTYPE svg PUBLIC "-//W3C//DTD SVG 1.1//EN" "http://www.w3.org/Graphics/SVG/1.1/DTD/svg11.dtd"><svg t="1604411015025" class="icon" viewBox="0 0 1024 1024" version="1.1" xmlns="http://www.w3.org/2000/svg" p-id="4454" xmlns:xlink="http://www.w3.org/1999/xlink" width="200" height="200"><defs><style type="text/css"></style></defs><path d="M950.153 461.51l-122.16-111.794-1.28-1.088V211.75c0-10.111-8.191-18.366-18.366-18.366h-82.55c-10.11 0-18.365 8.19-18.365 18.366v35.835l-5.12-4.351-150.829-134.256c-0.64-0.576-1.344-1.023-1.984-1.471-11.07-8.767-24.06-13.439-37.563-13.439-14.078 0-27.517 4.992-38.971 14.526-0.128 0.192-0.32 0.384-0.512 0.448L73.783 461.638c-10.559 9.087-12.927 26.429-5.248 38.907 7.68 12.415 22.526 15.23 33.084 6.208l398.35-352.404c0.064 0 0.192-0.128 0.256-0.192 3.456-3.008 7.488-4.544 11.775-4.544s8.319 1.536 11.71 4.416l0.576 0.384 398.095 352.212c10.558 9.023 25.405 6.27 33.084-6.208 7.615-12.478 5.31-29.82-5.312-38.907z" p-id="4455"></path><path d="M543.868 271.198c0-0.064-0.128-0.128-0.192-0.192-9.343-7.807-20.35-11.966-31.74-12.03-11.39 0-22.333 4.16-31.676 11.902-0.064 0.128-0.192 0.192-0.32 0.32l-276.19 247.97c-6.207 5.31-9.79 13.693-9.79 22.524l0.192 328.6c0 32.955 26.748 59.704 59.704 59.704h156.78V725.797c0-41.339 28.413-74.742 63.48-74.742h65.912c35.068 0 63.545 33.403 63.545 74.742v204.199h166.315c32.956 0 59.704-26.749 59.704-59.705l0.256-328.599c0-8.83-3.647-17.214-9.79-22.525l-276.19-247.969z" p-id="4456"></path></svg>